<svg id="Layer_1" data-name="Layer 1" xmlns="http://www.w3.org/2000/svg" viewBox="0 0 960.15 927.18"><defs><style>.cls-1{fill:#4d4d4d;}.cls-2{fill:#5d5d5d;}.cls-3{fill:#cecece;}.cls-4{fill:#f5e00a;}.cls-5{fill:#f5f5f5;}</style></defs><title>track1</title><path class="cls-1" d="M1390,134.86c3.61,2.14,7.74,2.73,11.73,3.4,15.17,2.57,28.22,10.25,41.72,16.88a4.05,4.05,0,0,0,.44.24c23.09,7.91,37.66,26.6,53.83,43.09,3.78,3.85,5.2,9.93,8.06,14.78,8.19,13.9,12.25,29.18,15.35,44.81a4.3,4.3,0,0,1,.42,1.92c1.59,60.37,1.07,120.75.67,181.12-0.07,10.87.15,21.88-1.07,32.77-2.69,16-8.27,31-15.1,45.81s-18.24,25.52-29.65,36.19c-7.29,6.82-16.86,10.33-26.63,12.67-6.58,1.57-13.19,3-19.79,4.51a251.22,251.22,0,0,1-31.82,0c-15-2.78-29.81-6.13-43.08-14.12a22.83,22.83,0,0,1-4.11-3.57q-45.14-45.11-90.27-90.24c-1.17-1.17-2.46-2.21-3.7-3.31-0.95-.56-2.06-0.88-2.73-1.85a16.7,16.7,0,0,0-4.55-4.68,10.26,10.26,0,0,1-1.1-.77,13.5,13.5,0,0,1-2.32-2.45,16,16,0,0,0-4.6-4.79,10.22,10.22,0,0,1-1.11-.78,13.61,13.61,0,0,1-2.32-2.44c-1.94-2.65-3.84-5.36-7.36-6.12a5.8,5.8,0,0,1-1.21-.6,13.11,13.11,0,0,0-6.48-3.29,6,6,0,0,1-1.25-.55,14.43,14.43,0,0,0-2.84-1.91,28.69,28.69,0,0,0-2.89-1q-30.2-.42-60.37,0c-1,.29-1.93.64-2.87,1a14.2,14.2,0,0,0-2.84,1.88,6.22,6.22,0,0,1-1.24.55,13.54,13.54,0,0,0-6.51,3.33,6.17,6.17,0,0,1-1.21.6c-3.34.63-4.83,3.56-7,5.64a18.15,18.15,0,0,1-2.63,2.87,6,6,0,0,0-2.39,4.13,9.94,9.94,0,0,1-1.6,3.6,8.66,8.66,0,0,0-2.43,4.76c-0.45,1.86-1.55,3.41-2.34,5.12a12.82,12.82,0,0,0-.29,2.49c-1.35,42.78-1.5,85.59-.68,128.36,0.31,16.28-.18,32.59,1,48.84,0.76,1.71,1.87,3.27,2.33,5.12,0.3,1.88,1.47,3.32,2.55,4.8a13,13,0,0,1,1.49,3.65,7.47,7.47,0,0,0,2.55,4.11,36.06,36.06,0,0,1,2.48,2.93c2.1,1.76,3.51,4.34,6.25,5.34a15.24,15.24,0,0,1,3.64,1.47c1.4,0.89,2.53,2.22,4.23,2.61,1.19,0.3,2,1.31,3.2,1.63a6.87,6.87,0,0,1,2.23,1.07,7.73,7.73,0,0,0,3.49,1.46,11,11,0,0,1,1.21.35c1.16,0.42,2.39.58,3.59,0.9a32.11,32.11,0,0,0,3.63.84,11.57,11.57,0,0,1,1.25.31c2.3,0.65,4.62,1.18,6.94,1.73a18.43,18.43,0,0,0,6.37.93,5.41,5.41,0,0,1,2.47.84c1.06,0.72,2.36,1,3.31,2,9.69,3.86,20,5.55,30,8.08,58.08,14.65,116.09,29.55,174.35,43.42,17.93,4.27,33.86,12.31,50,20.31a16.44,16.44,0,0,1,4.24,3.41c7.2,7.17,13.83,15,21.68,21.4,16.21,13.13,23.33,31.89,32.81,49.35,7.25,13.35,10.81,27.67,14,42.24,0.94,9.12.33,18.27,0.37,27.4,0,6.8.53,13.62-.34,20.42-2.68,16.21-7.46,31.67-15.58,46.08-4.51,8-8.54,16.3-12.44,24.62a29.63,29.63,0,0,1-6.06,9c-7.26,7.09-14.68,14.05-21.46,21.59-9.58,10.66-21,18.25-33.8,24.66-13.36,6.69-27.39,10.39-41.82,13.27-1.08.62-2.27,0.41-3.41,0.41h-93.66a7.28,7.28,0,0,1-2.95-.32c-1.79-1.88-1.61-4.28-1.62-6.57q-0.09-32.54,0-65.09c0-2.15,0-4.33,1.11-6.28,1.78-2.06,4.23-1.6,6.51-1.65,8.14-.17,16.29.22,24.42-0.23a11.59,11.59,0,0,1,3.89-.85,2.12,2.12,0,0,0,2.41-.33c2.45-1,5.06-1.32,7.55-2.13q3.91-.87,7.77-1.94c2.55-.55,5.09-1.21,7.61-1.86a13.86,13.86,0,0,0,6.06-2.4,10,10,0,0,0,4-1.76c1.65-.62,2.9-1.86,4.32-2.83a15.19,15.19,0,0,1,3.69-1.5c2.78-1,4.15-3.66,6.29-5.4,1.16-1.56,2.92-2.51,4.09-4.06s2.84-2.49,4.07-3.93a26.08,26.08,0,0,0,3-3.09,9.55,9.55,0,0,0,1.84-3.81,13,13,0,0,1,1.43-3.58c0.93-1.4,2.24-2.58,2.55-4.34a13.33,13.33,0,0,1,2.12-4,11.27,11.27,0,0,0,1.23-3.54,27.54,27.54,0,0,1,1.14-3.62,0.88,0.88,0,0,0,.11-1.62,3.18,3.18,0,0,1,0-1.89,40.13,40.13,0,0,0,1.94-4.63c0.78-.46.76-1,0.07-1.49a3.08,3.08,0,0,1,0-1.89,37.31,37.31,0,0,0,1.94-4.66c0.78-.55.7-1.11,0-1.69a3.49,3.49,0,0,1,.14-2c1.1-1.71,1.17-3.73,1.75-5.61,0.36-7.42.71-14.83-.21-22.22a81.08,81.08,0,0,0-2-8.45c-0.52-2.73-1.23-5.42-2-8.1-0.5-2.65-1.22-5.25-1.93-7.85a36.45,36.45,0,0,0-2-7.4,36.92,36.92,0,0,1-2.76-4.68c-0.61-2.06-1-4.2-2.67-5.79a5.55,5.55,0,0,1-.58-1.16c-0.5-1.81-.81-3.72-2.52-4.91a10.15,10.15,0,0,1-1-.81,9.26,9.26,0,0,1-1.33-1.47,15.76,15.76,0,0,0-4.55-4.72,10.14,10.14,0,0,1-1.1-.77,13.63,13.63,0,0,1-2.32-2.44c-1.94-2.66-3.84-5.36-7.37-6.12a5.8,5.8,0,0,1-1.21-.6,13.11,13.11,0,0,0-6.46-3.29,5.9,5.9,0,0,1-1.21-.52,13.29,13.29,0,0,0-2.64-1.78c-1.42-.65-3-0.41-4.47-0.82a6.17,6.17,0,0,1-1.27-.51c-2.34-1.68-5.17-1.87-7.83-2.58s-5.18-1.35-7.79-1.91c-2.62-.79-5.28-1.4-8-2-2.63-.8-5.31-1.41-8-2-2.63-.8-5.31-1.41-8-2-2.63-.8-5.3-1.41-8-2-2.62-.8-5.29-1.41-8-2a12.16,12.16,0,0,0-4.48-.62c-2.87,0-5.59-.88-8.33-1.57-54.28-13.57-108.66-26.8-162.8-40.94-13.77-3.6-26.87-9.87-37-20.78-2.71-2.93-5.52-5.8-8.48-8.47-9.4-8.45-14.54-19.29-17.66-31.25-2.06-7.89-4.11-15.78-5.74-23.78-0.08-73.62-.19-147.23,0-220.83a175.46,175.46,0,0,1,22-59,61.58,61.58,0,0,1,20.92-21,74.54,74.54,0,0,1,25-9.68c6-1.19,11.93-3,17.95-4.38,36.12-.24,72.23-0.19,108.33,0,13.85,3.9,28.41,5.51,41.23,12.87a47.88,47.88,0,0,1,10.4,7.59q38.56,38.68,77.21,77.26a49.18,49.18,0,0,0,6.27,5.68,14.38,14.38,0,0,1,2.85,3c1.19,1.86,3.25,2.79,4.74,4.33a34.88,34.88,0,0,1,3.47,3.94c1.21,1.66,3.11,2.54,4.5,4a38.54,38.54,0,0,1,3.55,4c2.1,1.8,3.53,4.37,6.29,5.41a15.36,15.36,0,0,1,3.63,1.47c1.41,0.89,2.54,2.24,4.27,2.63,1.32,0.27,2.05,1.7,3.49,1.75a7.52,7.52,0,0,1,2.43,1.08c5.14,1.41,10.27,1.72,15.37-.16,1.26-1.57,3-2.57,4.36-4.07a28.27,28.27,0,0,0,3.06-3.16,9.52,9.52,0,0,0,1.87-3.87,13.16,13.16,0,0,1,1.49-3.68c1.08-1.5,2.28-2.93,2.57-4.86a16.1,16.1,0,0,1,2-4.46c0.76-1.75.61-3.6,0.61-5.43q0-81.63,0-163.27a18.34,18.34,0,0,0-.31-4.46c-0.68-3-1.28-6-2.15-8.93-0.54-2.77-1.23-5.5-2-8.21-0.5-2.66-1.22-5.27-1.94-7.87a36.45,36.45,0,0,0-2-7.41,36.91,36.91,0,0,1-2.76-4.68c-0.61-2.06-1-4.2-2.67-5.79a5.53,5.53,0,0,1-.58-1.16c-0.5-1.81-.81-3.72-2.52-4.91a10.13,10.13,0,0,1-1-.81,9.26,9.26,0,0,1-1.33-1.47,15.76,15.76,0,0,0-4.55-4.72,10.17,10.17,0,0,1-1.1-.77,13.62,13.62,0,0,1-2.32-2.44c-1.94-2.66-3.84-5.36-7.37-6.12a5.85,5.85,0,0,1-1.21-.6,13.11,13.11,0,0,0-6.46-3.29,5.93,5.93,0,0,1-1.21-.52,13.28,13.28,0,0,0-2.64-1.78c-1.42-.65-3-0.41-4.47-0.82a6.2,6.2,0,0,1-1.28-.51c-2.35-1.68-5.2-1.87-7.87-2.59s-5.36-1.36-8.06-2c-2.94-.91-6-1.37-9-2.2-4.21-1.23-8.51-1.28-12.85-1.28q-138.14,0-276.29,0c-2.5,0-5-.09-7.48.14a26.8,26.8,0,0,0-3,1,11,11,0,0,0-2.81,1.91,9.21,9.21,0,0,1-2.31,1.27,11.69,11.69,0,0,0-5.69,2.68,6.25,6.25,0,0,1-1.19.57c-3.33.66-4.8,3.59-7,5.68a16.42,16.42,0,0,1-3.34,3.33,40.08,40.08,0,0,0-4.68,4.66,19,19,0,0,1-2.68,2.95,6.23,6.23,0,0,0-2.23,3.9,10.29,10.29,0,0,1-1.62,3.68,8.4,8.4,0,0,0-2.42,4.64,18.19,18.19,0,0,1-2.27,4.8c-0.82,3.07-.26,6.19-0.44,9.28-0.13,2.09.22,4.33-1.84,5.81-2.32,1.18-4.84,1-7.31,1q-31.31,0-62.62,0c-2.61,0-5.35.37-7.64-1.45-1.09-6.92-.41-13.9-0.43-20.84,0-7.79-.52-15.59.31-23.38,3.54-8.23,4.15-17.29,7.16-25.64,2.92-8.08,6-16.18,12.43-22.39a52.83,52.83,0,0,0,4.57-4.61c12.7-15.81,29.53-24.09,49.18-27.53,3.32-.58,6.86-0.95,9.83-2.94,1.75-.83,3.61-0.42,5.41-0.42q174.53,0,349.05,0C1386.38,134.52,1388.23,134.18,1390,134.86Z" transform="translate(-562.48 -134.42)"/><path class="cls-1" d="M570.11,334.1c-2.06-9.49-4.23-18.94-7.15-28.21-0.8-2.27-.36-4.62-0.37-6.93q-0.06-29.73,0-59.47c0-1.81-.34-3.67.34-5.44,2.26-3.74,2.88-8.05,3.57-12.18,2.32-13.84,9.47-25.65,15-38.17,4.82-10.82,12.68-17.4,23-22.75A177.71,177.71,0,0,1,652,144a2.78,2.78,0,0,0,2.11-1.1,144.54,144.54,0,0,1,23.9-.08c4.73,2.51,10,3.25,15.13,4.22,12.63,2.38,23.46,8.92,34.82,14.3a54.9,54.9,0,0,1,17.36,12.22c6.78,7.33,14,14.2,21.12,21.24,1.38,1.37,2.51,3.21,4.84,3.18,1,0.82,2.23,1.33,2.94,2.47,1.21,1.56,3,2.42,4.39,3.83a35.94,35.94,0,0,1,3.52,4c1.19,1.66,3.08,2.54,4.46,4a36.3,36.3,0,0,1,3.54,4c1.19,1.66,3.08,2.54,4.46,4a36.28,36.28,0,0,1,3.54,4c1.19,1.66,3.08,2.54,4.46,4a36.29,36.29,0,0,1,3.54,4c1.19,1.66,3.08,2.54,4.46,4a36.29,36.29,0,0,1,3.54,4c1.19,1.66,3.08,2.54,4.46,4a36.29,36.29,0,0,1,3.54,4c1.19,1.66,3.08,2.54,4.46,4a36.29,36.29,0,0,1,3.54,4c1.19,1.66,3.08,2.54,4.46,4a36.29,36.29,0,0,1,3.54,4c1.19,1.66,3.08,2.54,4.46,4a36.29,36.29,0,0,1,3.54,4c1.19,1.66,3.08,2.54,4.46,4a36.29,36.29,0,0,1,3.54,4c1.19,1.66,3.08,2.54,4.46,4a36.29,36.29,0,0,1,3.54,4c1.19,1.65,3.07,2.53,4.45,4a35,35,0,0,1,3.5,4c1.27,1.81,3.4,2.71,4.78,4.41a12.48,12.48,0,0,1,2.37,4.77c0.28,1.79,1.6,3,2.54,4.42a13.74,13.74,0,0,1,1.47,3.65c0.29,1.78,1.61,3,2.54,4.37a13.74,13.74,0,0,1,1.47,3.64c0.29,1.78,1.62,3,2.54,4.37a14.06,14.06,0,0,1,1.48,3.66,17.33,17.33,0,0,0,1.54,3.58c0.6,1.88.67,3.93,1.88,5.61a7.59,7.59,0,0,1,.54,2,10.52,10.52,0,0,1,.12,1.34,8.43,8.43,0,0,0,1.44,5,7.53,7.53,0,0,1,.48,2,10.21,10.21,0,0,0,1.5,5.89,8.86,8.86,0,0,1,.56,2.17,11.41,11.41,0,0,1,.14,1.59c-0.1,1.75.77,3.31,0.95,5-0.18,26.79-1.13,53.56-.92,80.35,0.27,34.81.07,69.63,0,104.45,0,1.81.37,3.67-.38,5.43-2.28,13.19-6.14,26-9.29,39-6.75,27.75-13.85,55.4-20.78,83.11a3,3,0,0,1-1.11,2.11c-0.94,8.91-.13,17.84-0.43,26.75-0.39,11.74.55,23.44,1.3,35.12a26.26,26.26,0,0,1,2.31,5c0.29,1.87,1.48,3.28,2.54,4.75a13,13,0,0,1,1.49,3.64,7.47,7.47,0,0,0,2.55,4.1,36.08,36.08,0,0,1,2.48,2.93c2.11,1.76,3.51,4.34,6.26,5.34a15.21,15.21,0,0,1,3.64,1.48c1.42,0.91,2.57,2.25,4.31,2.63,1.31,0.17,1.81,1.88,3.3,1.71,1.67,0.35,3.22,1.22,5,1.07,1.17,0,2.33,0,3.49,0s2.42-.05,3.63,0,2.35,0,3.52,0a11.51,11.51,0,0,0,4.42-1c1.56,0.14,2.69-.82,3.91-1.56,1.64-.62,2.88-1.86,4.3-2.83a15.16,15.16,0,0,1,3.68-1.5c2.78-1,4.09-3.69,6.32-5.32a28.28,28.28,0,0,0,3-3.14,9.49,9.49,0,0,0,1.88-3.87,13.18,13.18,0,0,1,1.48-3.68c1.07-1.49,2.28-2.9,2.56-4.81a15.71,15.71,0,0,1,2-4.37,10,10,0,0,0,.67-4.89c-0.33-13.09,1.67-26.12,1-39.22a3.68,3.68,0,0,1,.6-2.85c1.7-1.32,3.72-1.32,5.7-1.32q33.31-.08,66.63,0c2,0,4,.08,5.7,1.35,1.84,2.33,1.26,5.1,1.26,7.7q0.05,53.46,0,106.9c-1.53,11.55-3.87,22.93-8.6,33.64-3.83,8.67-8.48,17-12.57,25.51a20.92,20.92,0,0,1-3.95,5.72c-0.7.71-1.46,1.37-2.09,2.14-13.05,16-30,26.63-48.78,34.43a132.68,132.68,0,0,1-33.71,8.73q-18.65,0-37.27,0c-16.06-2.26-32-5.47-45.49-14.91-8.17-5.74-15.66-12.88-20-22.46-4.14-9.07-9.26-17.67-13-26.92a53.37,53.37,0,0,0-1.89-8.14,80.92,80.92,0,0,0-2.08-8.21c-0.5-3-1.46-5.83-2.24-8.73-2-7.66-.93-15.47-1.1-23.21-0.14-6.12-.19-12.24.08-18.36a28,28,0,0,1,1.33-4.51c0.6-.62,1.09-1.28.38-2.15a3.61,3.61,0,0,1,0-1.94,41,41,0,0,0,2-4.65c0.78-.46.76-1,0.07-1.49a3.07,3.07,0,0,1,0-1.89,39.19,39.19,0,0,0,1.94-4.64c0.79-.48.72-1,0.05-1.54a3.19,3.19,0,0,1,0-1.92,16.51,16.51,0,0,0,1.74-4.85c0.41-1.24.58-2.54,0.93-3.79a30.22,30.22,0,0,1,1.17-3.7c0.84-.48.8-1,0.13-1.65a3.2,3.2,0,0,1,0-1.9,40.35,40.35,0,0,0,1.95-4.63c0.78-.46.76-1,0.07-1.49a3.07,3.07,0,0,1,0-1.89,39.19,39.19,0,0,0,1.94-4.64c0.79-.48.72-1,0.05-1.54a3.19,3.19,0,0,1,0-1.92,16.51,16.51,0,0,0,1.74-4.85c0.41-1.24.58-2.54,0.93-3.79a30.22,30.22,0,0,1,1.17-3.7c0.84-.48.8-1,0.13-1.65a3.2,3.2,0,0,1,0-1.9,40.35,40.35,0,0,0,1.95-4.63c0.78-.46.76-1,0.07-1.49a3.07,3.07,0,0,1,0-1.89,39.19,39.19,0,0,0,1.94-4.64c0.79-.48.72-1,0.05-1.54a3.19,3.19,0,0,1,0-1.92,16.51,16.51,0,0,0,1.74-4.85c0.41-1.24.58-2.54,0.93-3.79a30.22,30.22,0,0,1,1.17-3.7c0.84-.48.8-1,0.13-1.65a3.2,3.2,0,0,1,0-1.9,40.35,40.35,0,0,0,1.95-4.63c0.78-.46.76-1,0.07-1.49a3.07,3.07,0,0,1,0-1.89,39.19,39.19,0,0,0,1.94-4.64c0.79-.48.72-1,0.05-1.54a3.19,3.19,0,0,1,0-1.92,16.51,16.51,0,0,0,1.74-4.85c0.41-1.24.58-2.54,0.93-3.79a30.22,30.22,0,0,1,1.17-3.7c0.84-.48.8-1,0.13-1.65a3.2,3.2,0,0,1,0-1.9,40.35,40.35,0,0,0,1.95-4.63c0.78-.46.76-1,0.07-1.49a3.07,3.07,0,0,1,0-1.89,39.19,39.19,0,0,0,1.94-4.64c0.79-.48.72-1,0.05-1.54a3.19,3.19,0,0,1,0-1.92,16.51,16.51,0,0,0,1.74-4.85c0.41-1.24.58-2.54,0.93-3.79a30.22,30.22,0,0,1,1.17-3.7c0.84-.48.8-1,0.13-1.65a3.2,3.2,0,0,1,0-1.9,40.32,40.32,0,0,0,1.95-4.63c0.78-.46.76-1,0.07-1.49a3.07,3.07,0,0,1,0-1.89,37.94,37.94,0,0,0,1.94-4.65c0.78-.53.74-1.08,0-1.64a3.39,3.39,0,0,1,.11-2,16.68,16.68,0,0,0,1.69-5.48c5.24-21.41,10.92-42.7,15.82-64.19a17,17,0,0,0,.52-4.94q0-62.28,0-124.57a14.42,14.42,0,0,0-.24-3.45c-2.31-9.88-4.5-19.83-7.48-29.53-2.74-8.9-6.81-17.2-13.71-24-19.93-19.65-39.66-39.49-59.41-59.32a26.87,26.87,0,0,1-2.26-2.64,15.77,15.77,0,0,0-4.83-5.15,10,10,0,0,1-1.08-.76,13.33,13.33,0,0,1-2.3-2.42,16,16,0,0,0-4.57-4.78,10.29,10.29,0,0,1-1.1-.78,13.47,13.47,0,0,1-2.33-2.45,15.94,15.94,0,0,0-4.6-4.79,10.21,10.21,0,0,1-1.11-.78,13.61,13.61,0,0,1-2.32-2.44c-1.94-2.65-3.84-5.36-7.36-6.12a5.83,5.83,0,0,1-1.21-.59,13,13,0,0,0-6.44-3.28,5.88,5.88,0,0,1-1.22-.52,22.11,22.11,0,0,0-2.62-1.9,23,23,0,0,0-2.47-1c-4.73-.24-9.48-1.07-14.13.58a3.37,3.37,0,0,1-2,.36c-1.4-1.18-2.65.71-4,.23a8.22,8.22,0,0,1-1.27-.23,4.21,4.21,0,0,0-3,.14,12.14,12.14,0,0,0-2.42,1.83,8.88,8.88,0,0,1-2.27,1.21,11.28,11.28,0,0,0-5.49,2.61c-1.11.72-2.4,1.07-3.53,1.74a27.17,27.17,0,0,0-4.67,4.5,19,19,0,0,1-2.68,2.94,6.23,6.23,0,0,0-2.24,3.9,10.29,10.29,0,0,1-1.61,3.67,8.24,8.24,0,0,0-2.41,4.55,15.14,15.14,0,0,1-2.14,4.51c-1.13,4.66-.66,9.34-0.25,14,0.5,1.82.71,3.75,1.83,5.36a7.8,7.8,0,0,1,.57,2,10.39,10.39,0,0,1,.13,1.36,8.41,8.41,0,0,0,1.44,5,7.46,7.46,0,0,1,.48,2c0.06,2,.19,4,1.43,5.76a7.71,7.71,0,0,1,.54,2,10.73,10.73,0,0,1,.12,1.38,11.32,11.32,0,0,0,.62,4,12.29,12.29,0,0,0,1.45,4,31.57,31.57,0,0,1,2.06,6.66Q700,390.43,714.3,448.09A60.73,60.73,0,0,0,719,460.68q25.06,50,50,100c5.4,10.85,7.34,22.71,9.52,34.49q0,22.67,0,45.32c0.2,3-.6,5.94-1.32,8.85-4,16-7.92,32-12,48-2.43,9.45-7.77,17.64-12,26.28-14.36,29.13-29.05,58.1-43.49,87.19a16.85,16.85,0,0,1-2.08,3.4,7.58,7.58,0,0,0-2.26,4.14,10.46,10.46,0,0,1-1.6,3.71,8.19,8.19,0,0,0-2.44,4.4,10.34,10.34,0,0,1-1.58,3.62,8.12,8.12,0,0,0-2.42,4.38,10.36,10.36,0,0,1-1.57,3.62,8.38,8.38,0,0,0-2.46,4.42,16.34,16.34,0,0,1-2.18,4.24c-1.15,2.34-1.47,4.91-2.11,7.4s-1.35,5.23-1.93,7.87c-0.77,2.69-1.4,5.41-2,8.14-0.81,2.83-1.42,5.71-2.08,8.57-0.8,10-.41,20-0.18,30,0.66,1.91.67,4,1.9,5.75a8,8,0,0,1,.6,2.1,10.27,10.27,0,0,1,.13,1.38,8.41,8.41,0,0,0,1.43,5,7.46,7.46,0,0,1,.48,2c0.07,2,.19,4,1.42,5.75a7.61,7.61,0,0,1,.54,2,10.2,10.2,0,0,1,.12,1.34,12,12,0,0,0,.52,3.84,8.81,8.81,0,0,0,1.37,3.49,12,12,0,0,1,2,4.07c0.29,1.77,1.57,3,2.51,4.37a12.93,12.93,0,0,1,1.45,3.58,7.47,7.47,0,0,0,2.55,4.09,36.06,36.06,0,0,1,2.48,2.93c2.11,1.76,3.51,4.35,6.26,5.34a15.18,15.18,0,0,1,3.65,1.48c1.41,0.91,2.57,2.24,4.3,2.62,1.44,0,1.71,2.15,3.35,1.83a19,19,0,0,0,6.66,2.54c2.51,0.65,5,1.26,7.56,1.83,2.49,0.75,5,1.29,7.56,1.93a17.93,17.93,0,0,0,6.73,1,9,9,0,0,1,3.52,1.14c1.22,0.65,2.51,1.19,3.17,2.55a9.35,9.35,0,0,1,.54,1.76c0.56,24,.21,48,0.19,71.94a6.42,6.42,0,0,1-1.45,4.66c-7.92.92-15.87,0.37-23.81,0.36-9.43,0-18.87.55-28.29-.34-15-2.78-30.85-4.9-42.92-14.44a265.61,265.61,0,0,1-40.89-40.81c-9.24-11.35-10.68-26.52-14.25-40.45q-4.55-17.76-9.14-35.51c-0.8-2.27-.36-4.62-0.37-6.93q-0.06-29.73,0-59.47c0-1.81-.34-3.67.34-5.44,3.64-8.88,5.47-18.3,7.34-27.61,4.57-22.79,13.06-44,24.11-64.34,8.07-14.88,15.27-30.24,22.79-45.41a20.94,20.94,0,0,1,4.19-5.51q20.67-20.61,41.27-41.29c1.48-1.49,3.49-2.7,3.52-5.21a5.91,5.91,0,0,0,1.21-1.36c0.49-.68.95-1.38,1.44-2.06,1.41-2,3.69-3,5.2-4.92,1.17-1.54,2.87-2.52,4.12-4a26.18,26.18,0,0,0,3-3.1,9.55,9.55,0,0,0,1.84-3.82,13,13,0,0,1,1.43-3.58c0.92-1.4,2.24-2.57,2.53-4.35a13.79,13.79,0,0,1,1.45-3.63c0.93-1.42,2.26-2.59,2.55-4.39a13.82,13.82,0,0,1,1.49-3.7c1-1.47,2.28-2.79,2.56-4.67a15.4,15.4,0,0,1,1.76-4.05,53.59,53.59,0,0,0,0-22.11,33.74,33.74,0,0,1-2.31-4.55c-0.66-2.1-1-4.35-2.68-6a5.61,5.61,0,0,1-.59-1.17c-0.51-1.82-.81-3.74-2.53-4.94a10.12,10.12,0,0,1-1-.81,9.24,9.24,0,0,1-1.33-1.47,15.81,15.81,0,0,0-4.53-4.71,10.22,10.22,0,0,1-1.1-.77,13.47,13.47,0,0,1-2.32-2.44,16,16,0,0,0-4.58-4.78,10.34,10.34,0,0,1-1.1-.78,13.44,13.44,0,0,1-2.32-2.45,16,16,0,0,0-4.58-4.78,10.26,10.26,0,0,1-1.1-.78,13.44,13.44,0,0,1-2.32-2.45,16,16,0,0,0-4.58-4.78,10.33,10.33,0,0,1-1.1-.77,13.44,13.44,0,0,1-2.32-2.45,16,16,0,0,0-4.58-4.78,10.24,10.24,0,0,1-1.1-.78,13.45,13.45,0,0,1-2.32-2.45,16,16,0,0,0-4.58-4.78,10.2,10.2,0,0,1-1.1-.77,13.34,13.34,0,0,1-2.29-2.41,17.64,17.64,0,0,0-4.9-5.11,6.18,6.18,0,0,1-1-.92,20.41,20.41,0,0,1-2.17-4.12c-0.55-2.06-1-4.15-2.72-5.67a9.21,9.21,0,0,1-1.27-2.29c-0.57-2.06-1-4.17-2.72-5.7a9.24,9.24,0,0,1-1.28-2.3c-0.57-2.06-1-4.17-2.72-5.7a9.24,9.24,0,0,1-1.28-2.3c-0.57-2.06-1-4.17-2.72-5.7a9.21,9.21,0,0,1-1.28-2.3c-0.57-2.06-1-4.17-2.72-5.7a9.21,9.21,0,0,1-1.28-2.3c-0.57-2.06-1-4.17-2.72-5.7a9.21,9.21,0,0,1-1.28-2.3c-0.57-2.06-1-4.17-2.72-5.7a9.21,9.21,0,0,1-1.28-2.3c-0.57-2.06-1-4.17-2.72-5.7a9.21,9.21,0,0,1-1.28-2.3c-0.57-2.06-1-4.17-2.72-5.7a9.21,9.21,0,0,1-1.28-2.3c-0.57-2.06-1-4.17-2.72-5.7a9.21,9.21,0,0,1-1.28-2.3c-0.57-2.06-1-4.17-2.72-5.7a9.21,9.21,0,0,1-1.28-2.3c-0.57-2.06-1-4.17-2.72-5.7a9.21,9.21,0,0,1-1.28-2.3c-0.57-2.06-1-4.17-2.72-5.7a9.21,9.21,0,0,1-1.28-2.3c-0.57-2.06-1-4.17-2.72-5.7a9.21,9.21,0,0,1-1.28-2.3c-0.57-2.06-1-4.17-2.72-5.7a9.21,9.21,0,0,1-1.28-2.3c-0.57-2.06-1-4.17-2.72-5.7a9.21,9.21,0,0,1-1.28-2.3c-0.57-2.06-1-4.17-2.72-5.7a9.21,9.21,0,0,1-1.28-2.3c-0.57-2.06-1-4.17-2.72-5.7a9.24,9.24,0,0,1-1.28-2.3c-0.57-2.06-1-4.17-2.72-5.7a9.24,9.24,0,0,1-1.28-2.3c-0.57-2.06-1-4.17-2.72-5.7a9.24,9.24,0,0,1-1.28-2.3c-0.57-2.06-1-4.17-2.72-5.7a9.26,9.26,0,0,1-1.28-2.29c-0.58-2.05-1-4.17-2.7-5.69a9.25,9.25,0,0,1-1.28-2.28c-0.57-2.06-1-4.15-2.65-5.73a4.13,4.13,0,0,1-.51-1.2C571,337.41,571,335.65,570.11,334.1Z" transform="translate(-562.48 -134.42)"/><path class="cls-2" d="M996.2,1059.88l-1.19,1.18a64.39,64.39,0,0,1-17.26-.1c-1.8-2.32-1.38-5.07-1.42-7.7-0.26-18.83.33-37.65,0.3-56.48,0-4.45-1.21-9,.68-13.34,5.07-3.23,14.94-2.6,18.71,1.19a3.68,3.68,0,0,1,.69,2.28c-0.09,1.21-1,2.1-1.25,3.27-0.07.64-.13,1.29-0.16,1.94s0,1.29,0,1.94,0,1.31,0,2,0,1.32,0,2,0,1.33,0,2,0,1.33,0,2,0,1.33,0,2,0,1.33,0,2,0,1.33,0,2,0,1.33,0,2,0,1.33,0,2,0,1.33,0,2,0,1.33,0,2,0,1.33,0,2,0,1.33,0,2,0,1.33,0,2,0,1.33,0,2,0,1.33,0,2,0,1.33,0,2,0,1.33,0,2,0,1.33,0,2,0,1.33,0,2,0,1.33,0,2,0,1.33,0,2,0,1.33,0,2,0,1.33,0,2,0,1.33,0,2,0,1.33,0,2,0,1.33,0,2,0,1.32,0,2,0,1.3,0,1.94,0,1.25,0,1.87,0,1.19.07,1.78a7.29,7.29,0,0,0,1.11,2.64A1.66,1.66,0,0,1,996.2,1059.88Z" transform="translate(-562.48 -134.42)"/><path class="cls-2" d="M1282.08,1060.83H1266c-1.86-1.86-1.69-4.27-1.69-6.58q-0.08-32.48,0-65c0-2.15-.09-4.36,1.36-6.21a45.14,45.14,0,0,1,16.38.07Q1282.08,1022,1282.08,1060.83Z" transform="translate(-562.48 -134.42)"/><path class="cls-2" d="M770.08,1060.82H754l0.09-78a21.7,21.7,0,0,1,16.26.05c1.57,2,1.4,4.37,1.41,6.67q0.07,32.09,0,64.19C771.77,1056.23,772.06,1058.82,770.08,1060.82Z" transform="translate(-562.48 -134.42)"/><path class="cls-2" d="M947.22,694q0-8,0-16.05c1.85-1.85,4.25-1.69,6.55-1.69q32.59-.08,65.17,0c2.15,0,4.34,0,6.22,1.33,1.95,5.5,2.36,11-.26,16.41H947.22Z" transform="translate(-562.48 -134.42)"/><path class="cls-1" d="M962.08,983.15H978q0,38.84,0,77.67H962.08c-1.88-1.83-1.73-4.23-1.74-6.52q-0.08-32.31,0-64.63C960.35,987.38,960.21,985,962.08,983.15Z" transform="translate(-562.48 -134.42)"/><path class="cls-1" d="M947.22,342h77.67q0,8,0,15.95c-1.83,1.88-4.23,1.73-6.52,1.74q-32.31.08-64.63,0c-2.3,0-4.7.14-6.52-1.74Q947.22,350,947.22,342Z" transform="translate(-562.48 -134.42)"/><path class="cls-2" d="M947.22,358h77.67V374c-1.84,1.85-4.24,1.68-6.54,1.69q-32.3.08-64.6,0c-2.29,0-4.69.16-6.54-1.69Q947.22,366,947.22,358Z" transform="translate(-562.48 -134.42)"/><path class="cls-1" d="M1024.89,662q0,8,0,15.95H947.22q0-8,0-15.95c1.83-1.88,4.23-1.74,6.52-1.74q32.31-.08,64.63,0C1020.67,660.28,1023.07,660.14,1024.89,662Z" transform="translate(-562.48 -134.42)"/><path class="cls-2" d="M1024.89,662H947.22q0-8,0-16.05c1.84-1.85,4.24-1.68,6.54-1.69q32.3-.08,64.6,0c2.29,0,4.69-.16,6.54,1.69V662Z" transform="translate(-562.48 -134.42)"/><path class="cls-1" d="M1024.89,646H947.22q0-8,0-15.95c1.83-1.88,4.23-1.74,6.52-1.74q32.31-.08,64.63,0c2.3,0,4.7-.14,6.52,1.74V646Z" transform="translate(-562.48 -134.42)"/><path class="cls-2" d="M1024.89,630H947.22q0-8,0-16.05c1.84-1.85,4.24-1.68,6.54-1.69q32.3-.08,64.6,0c2.29,0,4.69-.16,6.54,1.69V630Z" transform="translate(-562.48 -134.42)"/><path class="cls-1" d="M1024.89,614H947.22q0-8,0-15.95c1.83-1.88,4.23-1.74,6.52-1.74q32.31-.08,64.63,0c2.3,0,4.7-.14,6.52,1.74V614Z" transform="translate(-562.48 -134.42)"/><path class="cls-1" d="M947.22,534h77.67q0,8,0,15.95c-1.83,1.88-4.23,1.73-6.52,1.74q-32.31.08-64.63,0c-2.3,0-4.7.14-6.52-1.74Q947.22,542,947.22,534Z" transform="translate(-562.48 -134.42)"/><path class="cls-2" d="M947.22,550h77.67q0,8,0,16.05c-1.84,1.85-4.24,1.68-6.54,1.69q-32.3.08-64.6,0c-2.29,0-4.69.16-6.54-1.69Q947.22,558,947.22,550Z" transform="translate(-562.48 -134.42)"/><path class="cls-1" d="M947.22,566h77.67q0,8,0,15.95c-1.83,1.88-4.23,1.73-6.52,1.74q-32.31.08-64.63,0c-2.3,0-4.7.14-6.52-1.74Q947.22,574,947.22,566Z" transform="translate(-562.48 -134.42)"/><path class="cls-2" d="M947.22,582h77.67q0,8,0,16.05H947.22Q947.22,590,947.22,582Z" transform="translate(-562.48 -134.42)"/><path class="cls-1" d="M1024.89,326H947.22q0-8,0-15.95c1.83-1.88,4.23-1.74,6.52-1.74q32.31-.08,64.63,0c2.3,0,4.7-.14,6.52,1.74Q1024.89,318,1024.89,326Z" transform="translate(-562.48 -134.42)"/><path class="cls-1" d="M1024.89,294H947.22q0-8,0-16h77.67Q1024.89,286,1024.89,294Z" transform="translate(-562.48 -134.42)"/><path class="cls-1" d="M1025.18,390l-78-.08q0-8,0-16h77.67c0.75,2.57-.85,5.45,1.06,7.86a2,2,0,0,1,0,3.24l-0.49.09c-1.38.25-2.58-2-4-.33a1,1,0,0,0,.07,1.35c1.55,1.44,2.69-.77,4.12-0.52,1.69,1,1.62,2.42.93,4A1,1,0,0,1,1025.18,390Z" transform="translate(-562.48 -134.42)"/><path class="cls-1" d="M1025.18,518l-78-.08q0-8,0-16h77.67c2.51,2.05,1,5.18,2,7.62,0.18,1.32.16,2.59-1,3.52l-0.47.06c-1.37.19-2.46-1.89-4-.49a1,1,0,0,0-.15,1.32c1.39,1.72,2.56-.25,3.86-0.27a2,2,0,0,1,.92.21c1.16,1.42,1.23,2.8-.16,4.12l-0.38-.07Z" transform="translate(-562.48 -134.42)"/><path class="cls-1" d="M1024.89,486H947.22q0-8,0-16h77.67A17.68,17.68,0,0,1,1024.89,486Z" transform="translate(-562.48 -134.42)"/><path class="cls-1" d="M1024.89,454H947.22q0-8,0-16h77.67A17.68,17.68,0,0,1,1024.89,454Z" transform="translate(-562.48 -134.42)"/><path class="cls-1" d="M1024.89,422H947.22q0-8,0-16h77.67A17.68,17.68,0,0,1,1024.89,422Z" transform="translate(-562.48 -134.42)"/><path class="cls-2" d="M1154.08,983.15v77.67H1138c-1.85-1.84-1.68-4.24-1.69-6.54q-0.08-32.3,0-64.6c0-2.29-.16-4.69,1.69-6.54h16.05Z" transform="translate(-562.48 -134.42)"/><path class="cls-1" d="M1138,983.15v77.67h-15.95c-1.88-1.83-1.74-4.23-1.74-6.52q-0.08-32.31,0-64.63c0-2.3-.14-4.7,1.74-6.52H1138Z" transform="translate(-562.48 -134.42)"/><path class="cls-2" d="M1170,1060.83q0-38.84,0-77.67h16.05c1.85,1.84,1.68,4.24,1.69,6.54q0.08,32.3,0,64.6c0,2.29.16,4.69-1.69,6.54H1170Z" transform="translate(-562.48 -134.42)"/><path class="cls-2" d="M1122.08,983.15v77.67H1106c-1.85-1.84-1.68-4.24-1.69-6.54q-0.08-32.3,0-64.6c0-2.29-.16-4.69,1.69-6.54h16.05Z" transform="translate(-562.48 -134.42)"/><path class="cls-1" d="M1106,983.15v77.67h-15.95c-1.88-1.83-1.74-4.23-1.74-6.52q-0.08-32.31,0-64.63c0-2.3-.14-4.7,1.74-6.52H1106Z" transform="translate(-562.48 -134.42)"/><path class="cls-2" d="M1090.08,983.15v77.67H1074c-1.85-1.84-1.68-4.24-1.69-6.54q-0.08-32.3,0-64.6c0-2.29-.16-4.69,1.69-6.54h16.05Z" transform="translate(-562.48 -134.42)"/><path class="cls-1" d="M1074,983.15v77.67h-15.95c-1.88-1.83-1.74-4.23-1.74-6.52q-0.08-32.31,0-64.63c0-2.3-.14-4.7,1.74-6.52H1074Z" transform="translate(-562.48 -134.42)"/><path class="cls-2" d="M1058.08,983.15v77.67H1042c-1.85-1.84-1.68-4.24-1.69-6.54q-0.08-32.3,0-64.6c0-2.29-.16-4.69,1.69-6.54h16.05Z" transform="translate(-562.48 -134.42)"/><path class="cls-1" d="M1042,983.15v77.67h-15.95c-1.88-1.83-1.73-4.23-1.74-6.52q-0.08-32.31,0-64.63c0-2.3-.14-4.7,1.74-6.52H1042Z" transform="translate(-562.48 -134.42)"/><path class="cls-2" d="M1026.08,983.15v77.67H1010c-1.85-1.84-1.68-4.24-1.69-6.54q-0.08-32.3,0-64.6c0-2.29-.16-4.69,1.69-6.54h16.05Z" transform="translate(-562.48 -134.42)"/><path class="cls-2" d="M1202,1060.83q0-38.84,0-77.67h16.05c1.85,1.84,1.68,4.24,1.69,6.54q0.08,32.3,0,64.6c0,2.29.16,4.69-1.69,6.54H1202Z" transform="translate(-562.48 -134.42)"/><path class="cls-1" d="M1218.08,1060.83q0-38.84,0-77.67H1234c1.88,1.83,1.74,4.23,1.74,6.52q0.08,32.31,0,64.63c0,2.3.14,4.7-1.74,6.52h-15.95Z" transform="translate(-562.48 -134.42)"/><path class="cls-2" d="M1234,1060.83q0-38.84,0-77.67h16.05c1.85,1.84,1.68,4.24,1.69,6.54q0.08,32.3,0,64.6c0,2.29.16,4.69-1.69,6.54H1234Z" transform="translate(-562.48 -134.42)"/><path class="cls-1" d="M1250.08,1060.83q0-38.84,0-77.67h16q0,38.84,0,77.67h-16Z" transform="translate(-562.48 -134.42)"/><path class="cls-1" d="M770.08,983.15H786c1.88,1.83,1.73,4.23,1.74,6.52q0.08,32.31,0,64.63c0,2.3.14,4.7-1.74,6.52H770.08V983.15Z" transform="translate(-562.48 -134.42)"/><path class="cls-2" d="M786,1060.83V983.15h16.05c2,2,1.69,4.59,1.69,7,0,19.38.19,38.76-.26,58.13-0.1,4.2,1.53,8.62-1.43,12.5H786Z" transform="translate(-562.48 -134.42)"/><path class="cls-1" d="M834.08,983.15H850c1.75,1.67,1.73,3.89,1.73,6,0,19.55.22,39.11-.25,58.66-0.1,4.35,1.66,9-1.48,13H834.08c-2.23-2.31-1.71-5.25-1.75-8-0.26-17.57.29-35.13,0.29-52.7,0-3.15-.17-6.29-0.25-9.44C832.3,988.07,832,985.3,834.08,983.15Z" transform="translate(-562.48 -134.42)"/><path class="cls-1" d="M898.08,1060.82q0-38.84,0-77.67H914c1.88,1.83,1.73,4.23,1.74,6.52q0.08,32.31,0,64.63c0,2.3.14,4.7-1.74,6.52H898.08Z" transform="translate(-562.48 -134.42)"/><path class="cls-1" d="M882,983.15q0,38.84,0,77.67H866.08c-1.88-1.83-1.73-4.23-1.74-6.52q-0.08-32.31,0-64.63c0-2.3-.14-4.7,1.74-6.52H882Z" transform="translate(-562.48 -134.42)"/><path class="cls-2" d="M866.08,983.15q0,38.84,0,77.67H850q0-38.84,0-77.67h16.05Z" transform="translate(-562.48 -134.42)"/><path class="cls-2" d="M946,1060.83V983.15h16.05q0,38.84,0,77.67H946Z" transform="translate(-562.48 -134.42)"/><path class="cls-1" d="M802.08,1060.82q0-38.84,0-77.67H818c1.88,1.83,1.73,4.23,1.74,6.52q0.08,32.31,0,64.63c0,2.3.14,4.7-1.74,6.52H802.08Z" transform="translate(-562.48 -134.42)"/><path class="cls-2" d="M818,1060.83V983.15h16.05q0,38.84,0,77.67H818Z" transform="translate(-562.48 -134.42)"/><path class="cls-2" d="M914,1060.83V983.15h16.05q0,38.84,0,77.67H914Z" transform="translate(-562.48 -134.42)"/><path class="cls-3" d="M971.19,1017.21c7-4.15,2.79-10.58,3.76-15.7,0.51-2.68,1.16-6.27-4.34-5.87,5.21-2.86,6.39-2.3,6.43,2.41,0,5.13,0,10.26,0,15.39S977,1018.67,971.19,1017.21Z" transform="translate(-562.48 -134.42)"/><path class="cls-4" d="M969.3,480.89c-0.68,1.84-.65,3.93-2.66,4a3.32,3.32,0,0,1-3.26-3.13,3.4,3.4,0,0,1,3.28-3.62C968.74,477.86,967.91,480.42,969.3,480.89Z" transform="translate(-562.48 -134.42)"/><path d="M1002,988H1000q-0.05-1-.1-2C1001.34,985.92,1002.11,986.54,1002,988Z" transform="translate(-562.48 -134.42)"/><path class="cls-3" d="M899,1049c4.89-.2,4.1-3.49,4.09-6.33,0-3.14-.07-6.29,0-9.43,0.09-2.94.41-5.91-5.15-5.81,6.7-2.27,7.1-2,7.13,2.94s-0.29,10,.09,14.89S903.2,1050.68,899,1049Z" transform="translate(-562.48 -134.42)"/><path class="cls-3" d="M873.92,1016.57c5.56,0.09,5.24-2.87,5.16-5.81-0.09-3.14,0-6.29,0-9.43-0.07-2.74,1.34-6.44-4.72-5.69,6-2.61,6.7-2.26,6.73,2.6q0.05,7.69,0,15.39C881,1018.61,880.62,1018.83,873.92,1016.57Z" transform="translate(-562.48 -134.42)"/><path class="cls-3" d="M946.6,1026.74c5-1.71,6.87-.65,6.53,4.15s-0.06,9.61-.08,14.42c0,5.32-.07,5.33-5.56,4,7-4.95,2.1-12.28,3.58-18.33C951.86,1027.7,948.6,1028.35,946.6,1026.74Z" transform="translate(-562.48 -134.42)"/><path class="cls-5" d="M1000.13,1032.06H998v-2.14h2.14Q1000.13,1031,1000.13,1032.06Z" transform="translate(-562.48 -134.42)"/><path class="cls-5" d="M1000.13,1000.06H998v-2.14h2.14Q1000.13,999,1000.13,1000.06Z" transform="translate(-562.48 -134.42)"/></svg>